<svg xmlns="http://www.w3.org/2000/svg" viewBox="0 0 1600 1000" role="img" aria-label="Luxury travel landscape"><defs><linearGradient id="s" x1="0" y1="0" x2="1" y2="1"><stop stop-color="#1F3C96"/><stop offset=".55" stop-color="#081B33"/><stop offset="1" stop-color="#D4AF37"/></linearGradient></defs><rect width="1600" height="1000" fill="url(#s)"/><circle cx="1240" cy="190" r="110" fill="#D4AF37" opacity=".78"/><path d="M0 650 C210 540 360 620 540 520 C760 400 980 570 1160 430 C1320 310 1460 370 1600 270 L1600 1000 L0 1000 Z" fill="#081B33" opacity=".72"/><path d="M0 760 C240 660 470 780 690 690 C930 592 1150 760 1600 610 L1600 1000 L0 1000 Z" fill="#F8F9FA" opacity=".9"/><path d="M0 848 C280 790 500 880 760 810 C1040 736 1270 880 1600 760 L1600 1000 L0 1000 Z" fill="#1F3C96" opacity=".72"/></svg>